<svg width="8" height="12" viewBox="0 0 8 12" fill="none" xmlns="http://www.w3.org/2000/svg">
    <path fill-rule="evenodd" clip-rule="evenodd" d="M7.08211 0.807903C7.32457 1.08499 7.29649 1.50617 7.0194 1.74862L2.25946 5.91357L7.0194 10.0785C7.29649 10.321 7.32457 10.7422 7.08211 11.0192C6.83966 11.2963 6.41848 11.3244 6.14139 11.082L1.09475 6.66615C0.639428 6.26774 0.639426 5.55941 1.09475 5.161L6.14139 0.745189C6.41848 0.502734 6.83966 0.530812 7.08211 0.807903Z" fill="black"/>
    <path fill-rule="evenodd" clip-rule="evenodd" d="M7.08211 0.807903C7.32457 1.08499 7.29649 1.50617 7.0194 1.74862L2.25946 5.91357L7.0194 10.0785C7.29649 10.321 7.32457 10.7422 7.08211 11.0192C6.83966 11.2963 6.41848 11.3244 6.14139 11.082L1.09475 6.66615C0.639428 6.26774 0.639426 5.55941 1.09475 5.161L6.14139 0.745189C6.41848 0.502734 6.83966 0.530812 7.08211 0.807903Z" fill="#2A59FE" fill-opacity="0.3"/>
    <path fill-rule="evenodd" clip-rule="evenodd" d="M7.08211 0.807903C7.32457 1.08499 7.29649 1.50617 7.0194 1.74862L2.25946 5.91357L7.0194 10.0785C7.29649 10.321 7.32457 10.7422 7.08211 11.0192C6.83966 11.2963 6.41848 11.3244 6.14139 11.082L1.09475 6.66615C0.639428 6.26774 0.639426 5.55941 1.09475 5.161L6.14139 0.745189C6.41848 0.502734 6.83966 0.530812 7.08211 0.807903Z" fill="white" fill-opacity="0.5"/>
</svg>
