<svg width="176" height="176" viewBox="0 0 176 176" fill="none" xmlns="http://www.w3.org/2000/svg">
    <path d="M88 0.8125C39.8136 0.8125 0.8125 39.8074 0.8125 88C0.8125 136.186 39.8074 175.188 88 175.188C136.186 175.188 175.188 136.194 175.188 88C175.188 39.8136 136.194 0.8125 88 0.8125ZM144.513 144.513C113.28 175.745 62.7226 175.75 31.4855 144.513C0.324251 113.352 0.324251 62.6482 31.4855 31.487C62.7179 0.254499 113.276 0.2483 144.513 31.487C175.674 62.6482 175.674 113.352 144.513 144.513Z" fill="#E31024"/>
    <path d="M121.395 54.6052C119.977 53.1872 117.676 53.1872 116.257 54.6052L88.0004 82.8617L59.7439 54.6052C58.3253 53.1872 56.0251 53.1872 54.6059 54.6052C53.1873 56.0239 53.1873 58.324 54.6059 59.7432L82.8624 87.9997L54.6059 116.256C53.1873 117.675 53.1873 119.975 54.6059 121.394C56.0252 122.813 58.3247 122.812 59.7439 121.394L88.0004 93.1376L116.257 121.394C117.676 122.812 119.976 122.813 121.395 121.394C122.814 119.976 122.813 117.675 121.395 116.256L93.1383 87.9997L121.395 59.7432C122.813 58.3246 122.813 56.0244 121.394 54.6057L121.395 54.6052Z" fill="#E31024"/>
</svg>
