<svg width="17" height="18" viewBox="0 0 17 18" fill="none" xmlns="http://www.w3.org/2000/svg">
    <path fill-rule="evenodd" clip-rule="evenodd" d="M12 7C12 9.76142 9.76142 12 7 12C4.23858 12 2 9.76142 2 7C2 4.23858 4.23858 2 7 2C9.76142 2 12 4.23858 12 7ZM10.594 13.0082C9.54344 13.6379 8.314 14 7 14C3.13401 14 0 10.866 0 7C0 3.13401 3.13401 0 7 0C10.866 0 14 3.13401 14 7C14 8.82761 13.2996 10.4916 12.1526 11.7383L16.2071 15.7929C16.5976 16.1834 16.5976 16.8166 16.2071 17.2071C15.8166 17.5976 15.1834 17.5976 14.7929 17.2071L10.594 13.0082Z" fill="black"/>
    <path fill-rule="evenodd" clip-rule="evenodd" d="M12 7C12 9.76142 9.76142 12 7 12C4.23858 12 2 9.76142 2 7C2 4.23858 4.23858 2 7 2C9.76142 2 12 4.23858 12 7ZM10.594 13.0082C9.54344 13.6379 8.314 14 7 14C3.13401 14 0 10.866 0 7C0 3.13401 3.13401 0 7 0C10.866 0 14 3.13401 14 7C14 8.82761 13.2996 10.4916 12.1526 11.7383L16.2071 15.7929C16.5976 16.1834 16.5976 16.8166 16.2071 17.2071C15.8166 17.5976 15.1834 17.5976 14.7929 17.2071L10.594 13.0082Z" fill="#2A59FE" fill-opacity="0.3"/>
    <path fill-rule="evenodd" clip-rule="evenodd" d="M12 7C12 9.76142 9.76142 12 7 12C4.23858 12 2 9.76142 2 7C2 4.23858 4.23858 2 7 2C9.76142 2 12 4.23858 12 7ZM10.594 13.0082C9.54344 13.6379 8.314 14 7 14C3.13401 14 0 10.866 0 7C0 3.13401 3.13401 0 7 0C10.866 0 14 3.13401 14 7C14 8.82761 13.2996 10.4916 12.1526 11.7383L16.2071 15.7929C16.5976 16.1834 16.5976 16.8166 16.2071 17.2071C15.8166 17.5976 15.1834 17.5976 14.7929 17.2071L10.594 13.0082Z" fill="white" fill-opacity="0.5"/>
</svg>
